<?xml version="1.0" encoding="UTF-8"?>
<!DOCTYPE svg PUBLIC "-//W3C//DTD SVG 1.1//EN" "http://www.w3.org/Graphics/SVG/1.1/DTD/svg11.dtd">
<!-- Creator: CorelDRAW -->
<svg xmlns="http://www.w3.org/2000/svg" xml:space="preserve" width="83.53mm" height="61.481mm" version="1.1" style="shape-rendering:geometricPrecision; text-rendering:geometricPrecision; image-rendering:optimizeQuality; fill-rule:evenodd; clip-rule:evenodd"
viewBox="0 0 8353 6148.1"
 xmlns:xlink="http://www.w3.org/1999/xlink"
 xmlns:xodm="http://www.corel.com/coreldraw/odm/2003">
 <g id="Capa_x0020_1">
  <metadata id="CorelCorpID_0Corel-Layer"/>
  <g>
  </g>
  <g>
   <g id="_2500217438816">
    <g>
     <path d="M3949.03 538.94l305.8 1239.27c50.85,203.36 95.98,412.6 155.41,617.12 16.68,57.39 23.64,101.9 37.43,155.71 31.88,124.47 103.58,353.8 112.95,466.45l-67.36 -1059.25c-20.95,-166.31 -27.14,-350.07 -49.89,-529.52 -20.81,-164.15 -43.69,-361.47 -43.69,-551.8 65.62,-15.29 123.69,-14.28 200.25,-25.07 82.34,-11.6 136.73,-19.85 218.09,-23.33 125.11,-5.34 295.18,-23.12 425.42,-41.32 263.18,-36.76 561.9,-45.71 850.76,-82.71l1483.07 -142.47c65.04,-9.16 162.14,-23.08 218.34,-23.08 0,448.55 -66.74,1172.22 -64.48,1609.34l-31.24 805.68c-10.91,131.84 9.22,284.92 -1.69,416.76 -10.98,132.61 -15.25,263.59 -15.25,419.3l434.55 -3637.35c-187.77,0 -1329.57,119.47 -1547.52,142.39l-1043.71 99c-345.01,10.74 -1311.33,144.88 -1577.24,144.88z"/>
     <g>
      <path d="M6830.65 2695.6c46.66,-33.35 106.67,-64.9 144.5,-110.23 3.18,-3.81 20.49,-26.86 21.88,-28.25 22.91,-22.94 6.36,-7.94 34.52,-27.08 19.66,234.36 -41.85,153.74 -124.83,241.89 -34.08,36.21 -59.24,55.93 -108.96,76.92 -34.89,-0.59 -117.93,15.52 -175.27,25.56 -78.39,13.72 -355.85,263.03 -355.85,-98.34 -209.1,-48.71 -505.3,-189.81 -763.81,-136.12 -52.3,10.87 -81.22,20.85 -118.79,42.15 -43.73,24.8 -69.53,40.44 -83.08,77.88 -46.54,-34.11 -32.18,-13.11 -32.18,-96.57 -48.23,32.29 -138.29,234.33 -193.13,337.98 75.06,-1.67 44.84,-6.01 106.69,-21.97 49.06,-12.65 63.2,-9.68 118.62,-11.79l34.94 1.58 -7.2 -48.29c-13.29,-132.22 80.23,-137.8 246.3,-129.28 87.73,4.5 251.17,68.6 323.52,95.03 53.23,19.45 92.05,38.28 147.25,61.98 308.56,132.43 152.36,9.68 313.46,39.14 45.21,8.27 100.85,50.47 116.63,94.08 65.62,-5.46 107.41,-52.86 160.64,-80.78 50.8,-26.64 114.67,-66.84 186.9,-58.54 60.75,6.97 146.47,31.26 180.13,62.3 47.58,43.87 20.78,34.33 49.87,78.89 19.55,29.95 38.5,43.93 66.24,62.51 234.39,-442.97 154.17,-1039.16 -236.28,-1373.17 -422.62,-361.54 -949.1,-402.93 -1404.84,-139.2 -218.26,126.3 -414.36,357.21 -493.81,600.61 -14.99,45.91 -20.95,87.96 -37.82,123.13 89.73,-20.91 115.75,-63.55 230.89,-5.62 61.7,31.05 116.51,86.36 123.18,166.56 56.61,-4.71 74.72,-21.12 116.52,-28.34 137.55,-23.75 300.76,11.6 417.88,41.16l479.56 132.03c91.74,-137.01 66.26,-65.43 112.66,-128.76 -233.65,-123.62 -649.63,-312.57 -917,-322.57l-125.94 3.87c-34.73,7.22 -15.97,0.58 -35.39,12.91l-18.78 -13.41c-0.02,-5.4 8.62,-14.31 9.6,-11.86l140.12 -197.87c3.14,-3.47 12.14,-13.44 15.39,-16.79l16.21 -15.99c456.96,-434.8 1151.01,-302.08 1409.58,212.77 35.97,71.62 128.35,235.96 59.16,322.06 -62.62,77.92 -174.71,123.45 -311.53,123.45 18.15,37.84 14.03,58.73 32.19,96.57 57.48,0 102.04,-3 129.46,-32.19zm-1502.14 287.24l11.85 -8.01c-0.18,0.12 -3.11,2.09 -3.44,2.31 -0.84,0.56 -11,3.53 -8.41,5.7z"/>
      <path d="M3383.04 3486.91l46.03 -72c121.76,-240.84 135.49,-171.06 101.5,-316.95 -164.21,0 -162.59,41.67 -273.93,257.18 -48.86,94.57 -144.52,297.14 -144.52,402.69 0,107.06 60.54,109.12 144.85,128.76 77.28,-115.41 158.8,-300.26 318.15,-438.29l132.49 -125.02c0,97.76 -52.41,406.36 18.15,529.07 86.77,150.88 201.48,44.74 237.27,45.71 114.78,3.11 89.06,226.41 496.2,-257.71 41.7,-49.59 48.48,-89.41 117.49,-107.84 -2.35,105.42 -55.46,101.08 -53.67,319.88 1,122.16 39.66,234.23 150.23,243.43 0,-362.76 89.6,-543.46 196.69,-865.54 35.43,-106.56 67.88,-112.67 115.69,-270.59 16.37,-54.07 21.03,-55.47 46.69,-98.16 64.84,-107.89 155.96,-264.98 155.96,-391.26 -60.87,-16.25 -58.62,-41.1 -144.86,-48.28l-332.7 632.97c-37.76,69.33 -88,150.87 -166.22,171.76 -12.32,-147.96 -119.94,-144.85 -209.23,-144.85 -130.52,0 -241.51,210.11 -289.81,305.68 -96.22,190.39 -112.56,279.09 -112.56,482.95 -102.79,-75.32 -55.87,-271.11 -48.32,-402.41 7.45,-129.62 97.92,-337.94 -64.34,-337.94 -110.72,0 -362.1,286.02 -418.45,370.17l-18.78 -13.41zm1209.77 -34.87l4.8 4.8c-0.32,-0.31 -6.4,-3.2 -4.8,-4.8zm-498.93 321.89c47.51,-89.79 65.71,-212.12 117.79,-316.77 41.19,-82.79 117.43,-223.4 204.1,-246.54 39.36,70.07 18.01,180.93 -45.76,260.04 -82.2,101.96 -199.98,282.94 -276.13,303.27z"/>
      <path d="M6682.41 4677.9c-0.02,-5.38 8.79,-14.12 9.75,-11.7 0.97,2.44 5.64,-7.18 6.95,-9.15l98.65 -223.25c-48.29,-72.09 -63.25,-47.84 -89.67,-103.47 -10.57,-22.25 3.26,-66.24 -93.07,-116.16 -182.51,-94.57 -536.32,-37.88 -670.27,-37.88 22.01,-94.48 77.51,-92.58 80.47,-225.32 -127.18,-29.63 -96.06,-100.9 -211.45,126.54 -11.5,22.67 -8.04,18.97 -19.79,44.58 -42.58,92.86 -65.46,59.8 -232.49,105.49 -64.69,17.69 -109.12,44.85 -180.05,61.37 -20.57,88.3 9.82,53.67 -26.38,117.42 -81.59,143.69 -182.85,428.16 -182.85,622.93 0,102.25 -12.26,132.68 48.29,177.04 48.97,-35.88 24.72,-36.98 78.02,-179.48l211.68 -576.96c0,-36.87 -5.46,-18.72 -16.1,-64.38 59.32,-13.82 113.92,-33.58 177.04,-48.28 -13.06,156.91 -273.61,464.55 -273.61,965.67 0,55.48 11.91,62.31 16.1,112.66 68.58,-18.32 80.91,-122.18 126.76,-259.51 35.84,-107.38 80.08,-190.73 112.81,-289.55 16.78,-50.64 31.7,-100.48 47.91,-145.23l179.26 -416.23c112.56,0 153.88,-16.1 257.51,-16.1l408.03 26.52c177.79,26.56 100.98,75.86 49.3,205.49 -73.16,183.52 -193.95,487.24 -151.53,669.28 165.94,13.81 112.11,73.58 236.07,-214.57 17.52,-40.75 17.97,-55.48 33.08,-95.67 30.22,-80.36 132.31,-279.62 213.68,-301.35 16.22,69.65 81.41,177.04 160.95,177.04 79.42,0 101.36,-76.98 128.75,-128.75 -77.17,-35.69 -92.73,49.33 -147.61,-93.77 -127.33,-331.95 -272.23,-21.74 -367.41,158.14l-18.78 -13.41z"/>
      <path d="M939.36 5721.36c0,152.45 126.99,289.7 273.61,289.7 382.09,0 869.1,-589.03 869.1,-692.06 0,-122.33 -164.27,59.43 -189.1,84.5 -155.13,156.61 -337.61,277.29 -525.8,391.6 -80.73,49.04 -173.94,98.73 -212.86,1.01 -96.88,-243.23 145.98,-686.17 233.2,-898.06 49.27,-119.7 229.77,-391.13 319.79,-484.93 46.31,-48.25 98.42,-102.49 165.54,-108.07 0,236.74 -90.16,364.64 -198.01,526.25 -10.95,16.4 -19.18,24.77 -34.87,46.48 -112.43,155.54 100.58,174.59 171.93,90.57 96.63,-113.78 373.14,-637.87 197.78,-767.94 -256.57,-190.32 -529.34,177.54 -651.92,362.08l-119.42 202.47c-40.82,67.86 -68.62,128.33 -98.01,207.78l-129.25 337.5c-14.96,44.82 -21.49,81.45 -33.27,127.67 -21.94,86.12 -38.44,183.45 -38.44,283.45z"/>
      <path d="M4604.93 4771.79c-23.71,32.48 -9.12,18.59 -39.29,41.93 -16.69,-82.33 -3.12,-26.53 11.08,-47.05 26.47,-40.59 68.26,-119.35 80.39,-171.92 28.3,-61.61 169.89,-213.61 -70.31,-182.51 -5.95,11.39 -11.23,29.66 -19.11,42.73 -22.27,36.95 -5.83,16.75 -39.26,43.13 -36.05,27.9 -138.1,256.51 -163.47,319.45 -17.35,43.06 -57.68,135.35 -65.42,191.5 -13.27,96.33 76.95,116.81 -76.91,116.81 0,-273.27 206.72,-579.24 209.24,-692.06 -136.96,-91.7 -137.5,-72.62 -252.56,133.72 -90.18,161.71 -264.1,474.04 -423.41,558.34 0,-149.09 255.01,-579.67 257.51,-692.06 -39.56,-18.98 -69.69,-30.87 -128.76,-32.19 -16.5,61.79 -241.39,361.85 -278.82,607.01 -16.04,105.06 47.01,331.3 330.71,153.04 59.32,-37.27 75.76,-67.1 125.15,-100.17 2.28,102.28 47.71,171.55 151.92,153.14 125.64,-22.19 73.15,-72.87 155.8,-59.18 57.7,9.55 0,12.16 78.55,18.7 72.88,-137.74 93.62,-184.09 196.72,-302.21 45.65,-52.31 188.74,-227.6 253.92,-245 -14.27,171.49 -75.55,495.9 75.04,569.53 66.5,32.52 108.39,21.6 166.38,-6.23 -27.63,-76.34 -145.72,-54.17 -55.47,-538.35 12.21,-65.51 39.76,-131.97 8.72,-186.77 -26.76,-47.23 -93.95,-58.61 -145.88,-32.19 -85.29,43.4 -310.38,256.29 -342.46,338.86z"/>
      <path d="M2819.73 4677.9l51.9 -82.22c95.01,-191.05 -73.91,-199.74 -120.43,-170.53 -89.03,55.9 9.31,5.49 -89.86,201.66 -52.6,104.07 -228.44,428.25 -92.63,511.34 32.12,19.65 66.05,32.44 108.86,36l158 -308.73 211.32 -207.14c-64.02,144.05 -127.91,244.39 -127.91,354.93 0,79.58 120.35,85.45 177.04,112.65 24.09,-35.96 29.96,-31.62 53.78,-74.98 77.57,-141.22 135.34,-254.43 249.5,-394.28 41.98,-51.43 73.96,-95.91 131.27,-126.23 -7.06,84.92 -229.24,595.5 -71.75,716.74 46.88,36.09 28.04,12.94 39.56,7.51 57.13,-23.05 20.84,1.15 40.47,-88.28l159.46 -548.71c15.3,-39.48 73.68,-183.83 73.68,-216.02 0,-57.3 -87.55,-144.85 -144.85,-144.85 -62.87,0 -189.24,163.33 -232.13,218.52l-162.23 175.75c-40.19,48.74 -2.77,33.26 -56.29,72.47 22.02,-94.5 64.38,-114.61 64.38,-241.41 0,-68.36 -16.35,7.74 -48.28,-80.48 -162.07,0 -113.13,47.7 -197.68,124.21 -76.99,69.68 -98.27,55.64 -156.4,165.49l-18.78 -13.41z"/>
      <path d="M504.81 4047.53l-230.3 43.31c-71,27.66 -16.46,-21.45 -59.4,37.17 -26.29,54.79 9.75,128.75 48.28,128.75 76.51,0 116.95,-18.28 178.1,-31.13l897.33 -148.81c113.54,-12.82 282.02,-20.42 389.17,-45.38 -30.58,-26.58 -25.58,-23.31 -73.75,-38.91 -287.77,-93.21 -743.18,6.72 -1020.68,6.72l107.8 -294.57c43.97,-92.48 38.41,-27.32 85.45,-188.15l121.91 -312.64c27.89,-72.68 42.86,-137.61 71.35,-202.25 26.11,-59.23 59.72,-127.66 82.42,-191.2 10.65,-29.83 18.32,-61.32 32.99,-95.77 33.98,-79.82 243.72,-421.43 29.2,-421.43 -58.9,0 -99.67,113.86 -121.98,167.72l-133.41 317.23c-16.84,44.29 -22.92,72.6 -41.04,119.9l-207.84 532.51c-51.46,118.92 -148.21,528.09 -155.6,616.93z"/>
      <path d="M5587.98 3390.34c-0.01,-5.38 8.91,-14 9.87,-11.59l76.46 -164.96c18.3,-41 15.89,-18.38 29.02,-67.54 -36.9,-55.11 -38.82,-49.92 -96.57,-80.48 -95.28,63.8 -201.58,407 -209.23,498.93 -79,6.58 -112.17,65.43 -208.99,129 -72.55,47.64 -156.62,110.88 -225.56,112.42 -23.5,-100.9 -23.5,-108.33 0,-209.23 112.47,-26.2 163.73,-19.38 277.92,-124.45 49.27,-45.33 241.85,-298.33 75.12,-374.23 -80.68,-36.72 -80.78,-29.03 -114,-20.09 -203.26,54.71 -416.07,410.82 -416.07,567.05 0,101.95 -24.55,289.7 209.22,289.7 127.12,0 244.88,-138.27 312.74,-218.37l57.44 -55.23c-18.42,79.02 -32.19,94.29 -32.19,193.13 0,74.34 138.5,78.75 177.1,16.59 32.47,-52.31 177.9,-541.47 321.82,-579.89 50.9,218.46 269.1,234.73 273.61,32.18 -84.62,19.72 -99.13,10.9 -134.02,-75.16 -14.36,-35.41 -17.73,-60.93 -37.66,-91.14 -127.93,-193.97 -275.41,148.81 -327.25,246.78l-18.78 -13.42zm-363.7 -102.14l-18 28.87 -5.52 29.58 -27.46 22.26 -11.41 21.37 -15.85 19.73c0,22.94 5.05,15.85 -20.31,15.85l-18.91 10.59 -23.17 27.46 -28.16 4.97c-30.04,39.29 -5.87,17.15 -56.8,29.1 19.05,-106.34 2.5,-18.27 28.67,-55.43l-1.44 -6.6 6.21 -21.45 29.37 -21.6 11.53 -20.78 13.47 -21.14 15.98 -16.25 14.14 -20.39 19.53 -12.07 20.63 -11.14 11.41 -15.46c45.84,-72.11 -17.9,13.85 14,-20.71 28.77,-31.17 4.15,-6 27.21,-25.63 14.54,-14.59 -26.16,-21.07 37,-11.72 2.22,47.05 3.55,38.96 -22.12,70.59z"/>
      <path d="M7956.56 4498.18c-5.1,61.21 -46.74,105.21 -78,147.32l-92.94 116.3c-2.35,2.33 -6.03,5.37 -8.36,7.73 -39.75,40.45 -61.1,74.43 -106.31,119.01 -44.25,43.63 -78.46,80.61 -116.76,124.67 40.16,-172.35 195.82,-466.91 402.37,-515.03zm-579.4 563.31c0,92.09 149.49,244.29 405.08,-77.75 38.34,-48.3 63.92,-113.86 109.94,-147.58 0,201.02 -31,337.99 177.04,337.99 -23.28,-158.47 -14.23,-340.73 31.71,-483.31 68.65,-213.08 21.01,-155.6 -37.17,-251.58 -24.74,-40.81 11.11,-102.02 -171.58,-102.02 -162.96,0 -323.45,214.18 -396.8,359.63 -22.75,45.12 -41.58,63.91 -58.29,102.66 -23,53.35 -59.93,192.46 -59.93,261.96z"/>
      <path d="M2562.22 3712.23c-0.1,-5.46 7.68,-15.27 8.53,-12.93 8.19,22.82 9.52,-17 11.43,-20.75 9.3,-18.24 10.07,-20.1 20.78,-43.6 56.55,-124.17 108.45,-256.56 216.31,-347 51.22,-42.95 89.22,-49.12 148,-77.33 -2.04,91.25 -150.89,255.43 -218.92,328.3l-117.69 123.73c-20.25,21.13 -33.83,39.36 -49.66,63l-18.78 -13.42zm340.67 -179.72c30.83,25.47 14.01,8.01 6.7,38.98 -15.79,66.89 -8.31,144.8 7.93,203.89 19.94,72.49 58.11,111.21 146.32,111.21 51.74,0 5.85,-68.07 3.08,-112.99 -1.67,-27.25 10.72,-120.11 13.19,-176.52 9.57,-218.65 136.45,-293.42 15.93,-418.67 -37.82,-39.31 -27.59,-23.75 -48.3,-112.64 -138.63,-11.54 -245.96,-80.85 -469.26,222.8 -20.8,28.29 -29.6,52.29 -46.64,82.13 -63.72,111.63 -231.19,415.15 -75.19,496.23 190.43,98.97 374.26,-198.38 446.24,-334.42z"/>
      <path d="M1274.66 3728.33l22.39 -31.26c73.96,-137.66 151.68,-428.89 398.75,-486.45 -7.06,84.91 -126.32,217.34 -182.91,283.83l-111.04 114.28c-54.98,53.81 -67.25,71.55 -108.41,133.01l-18.78 -13.41zm-158.26 61.69c0,19.66 126.67,267.34 402.69,-96.23 29.52,-38.89 78.17,-120.15 112.33,-145.18 0,193.3 -23.82,337.98 177.04,337.98 -3.99,-179.14 -44.59,-118.12 14.37,-404.09 48.66,-236.01 89.13,-193.93 -6.09,-312.34 -45.24,-56.27 -2.48,-120.48 -185.32,-120.48 -231.35,0 -515.02,463.77 -515.02,740.34z"/>
      <path d="M6457.09 3696.14c-0.1,-5.46 7.67,-15.29 8.51,-12.94 8.24,23.06 9.49,-17.04 11.39,-20.81 4.17,-8.26 10.81,-22.91 15.51,-32.77 68.91,-144.7 139.08,-311.97 289.56,-389.24 130.49,-67.01 53.75,47.04 8.98,108.33 -39.37,53.9 -58.16,76.48 -101.89,123.48l-232.06 223.95zm33.74 174.36c38.28,-59.75 46.47,-42.01 82.98,-78.53 19.69,-19.7 15.18,-24.32 35.41,-45.63 114.22,-120.35 154.06,-213.77 205.25,-246.99 0.66,93.24 -27.67,192.02 19.36,305.81l52.99 65.34c36.5,25.26 27.55,16.09 87.97,16.09 -22.07,-265.27 -31.6,-264.14 49.23,-530.97 31.24,-103.11 11.36,-129.34 -24.47,-169.66 -66.98,-75.37 48.96,59.97 -16.6,-15.67 -60.64,-69.98 -13.96,-90.26 -94.6,-115.08 -43.32,-13.33 -107.04,-8.08 -145.67,3.54 -71.36,21.47 -132.84,73.35 -182.62,123.41 -157.36,158.27 -277.33,399.54 -277.33,656.15 70.83,18.91 111.95,80.26 208.1,32.19z"/>
      <path d="M6285.35 4573.89l-5.08 29.22 -29.69 19.88 -7.31 24.3 -10 21.6 -30.7 18.71 -8.91 23.52c-18.21,20.25 -28.84,31.23 -40.08,44.06l-14.96 17.82 -31.05 29.26 -20.63 25.62c-12.97,16.06 -9.96,13.78 -25.3,29.32 -2.95,2.99 -22.32,18.14 -24.86,20.26 -27.22,62.9 -3.63,17.18 -52.85,62.78 -29.33,27.17 -25.01,31.29 -53.84,55.27l-27.34 52.07c-14.55,-16.93 -31.17,34.08 -20.01,-58.56 0.18,-1.53 16.27,-39.94 17.24,-42.61 21.1,-73.04 -0.15,-18.35 28.67,-40.2 23.55,-27.38 34.27,-58.53 53.53,-96.81 23.21,-46.14 47.85,-71.51 56.4,-118.09l53.63 -58.67c0,-25.2 -6.45,-19.18 18.25,-19.18l10.55 -15c0,-25.44 -6.62,-19.53 18,-19.53l16.22 -16.29 48.75 -38.71 30.86 -19.3 80.59 -8.83c-3.01,57.1 9.56,44.5 -30.08,78.09zm-565.92 503.69c0,53.58 76.73,98.28 135.59,102.71 52.62,3.95 115.44,-38.52 154.85,-69.77 55.13,-43.69 71.02,-73.39 112.04,-129.37l112.54 -144.99c0,192.17 -20.04,337.99 177.04,337.99 -3.69,-165.39 -27.23,-18.21 2.51,-319.38 28.3,-286.7 131.44,-247.4 5.66,-396.95 -2.15,-2.55 -5.45,-5.95 -7.42,-8.67l-11.74 -20.45c-17.29,-32.97 11.82,-91.46 -166.05,-91.46 -123.54,0 -290.64,173.58 -353.7,273.98 -64.43,102.59 -161.32,303.88 -161.32,466.36z"/>
      <path d="M2033.79 3773.93c12.46,-53.5 21.69,-102.33 33.25,-159.88l127.69 -483.9c-112.05,-53.77 -141.68,-101.61 -231.01,203.55 -42.26,144.36 -182.51,474.43 -38.72,549.04 147.85,76.72 206.84,36.08 331.64,-111.27 79.44,-93.8 237.29,-379.42 266.2,-474.16 35.77,-117.24 58.16,-213.01 58.16,-344.2 0,-61.53 4.94,-5.86 -16.1,-48.28 -45.53,33.36 -30.68,41.94 -55.09,105.85l-175.56 355.55c-42.59,85.89 -202.09,381.43 -300.46,407.7z"/>
      <path d="M2146.45 5109.77c-84.19,-159.1 101.54,-587.6 273.6,-627.68 0,212.44 -76.97,523.63 -273.6,627.68zm-177.04 -225.32l0 177.04c0,49.84 218.29,239.13 374.97,85.27 158.02,-155.2 220.52,-286.58 220.52,-535.92 0,-80.21 -76.03,-186.72 -112.66,-241.41 -222.57,18.51 -348.16,110.22 -428.07,312.27 -21.2,53.61 -54.76,141.62 -54.76,202.75z"/>
      <path d="M7071.36 1118.34l498.93 0c23.65,-101.52 27.67,-211.93 40.52,-333.74 8.31,-78.65 5.95,-62.31 -72.24,-55.76 -57.48,4.82 -478.93,44.55 -501.51,66.6 -32.71,31.97 16.78,286.39 34.3,322.9z"/>
      <path d="M5091.74 1086.15c0,410.7 498.93,340.24 498.93,48.28 0,-372.54 -498.93,-299.44 -498.93,-48.28z"/>
      <path d="M7167.93 5013.21c0,124.59 -8.12,89.19 16.09,193.13l48.29 0 233.67 -667.61c25.09,-50.4 34.12,-35.09 39.93,-104.93 -142.62,-150.34 -185.09,17.45 -232.83,153.43 -48.98,139.49 -105.15,189.5 -105.15,425.98z"/>
      <path d="M6073.5 3693.46c0,131.84 -9.51,115.39 16.1,225.32l48.28 0 232.06 -669.23c24.65,-56.67 26.95,-32.53 41.55,-87.21 -17.37,-25.94 -36.1,-48.35 -66.04,-62.71 -23.85,-11.45 -47.06,-17.06 -80.91,10.19 -50.73,40.82 -191.04,428.47 -191.04,583.64z"/>
      <path d="M4608.9 1198.81c0,307.18 386.27,243.41 386.27,32.19 0,-110.4 -73.1,-192.45 -182.62,-203.29 -100.75,-9.97 -203.65,66.28 -203.65,171.1z"/>
      <path d="M6395.39 2872.64c37.46,0 193.14,-108.96 193.14,-160.95 0,-73.97 -75.46,-80.47 -128.76,-80.47 -13.43,20.06 -151.8,241.42 -64.38,241.42z"/>
      <path d="M5529.61 3977.69l-10 38.7 -14.8 35.98 -26.8 34.75 0 73.08c51.11,-12.24 10.48,-0.43 51.02,-16.1 0,-32.99 -8.24,-24.72 24.81,-24.72l26.61 -7.18 19.46 -26.52 21.34 -10.82 23.77 -8.77 27.99 -28.74 -6.45 -75.02 -24.29 -26.79 -75.17 -4.83c-30.7,28.06 -15.24,9.22 -37.49,46.98z"/>
      <path d="M7528.02 3979.17l-10.47 37.27 -43.83 82.93c5.61,61.12 6.08,63.65 44.03,44.73l29.87 -24.49c59.89,-46.87 -65.18,44.63 20.64,-14.61 30.34,-17.4 32.51,-18.12 66.02,-43.95l36.47 -46.19 -14.83 -48.07 -18.13 -28.63 -75.2 -3.71c-20.73,22.15 -18.25,15.88 -34.57,44.72z"/>
     </g>
    </g>
   </g>
  </g>
 </g>
</svg>
